# xmcd
# 
# Track frame offsets:
#     150
#     18029
#     33849
#     66518
#     79121
#     109800
#     127700
#     142668
#     160727
#     184443
#     201958
#     222888
#     241313
#     263493
# 
# Disc length: 3803
# 
# Revision: 3
# Processed by: cddbd v1.5.2PL0 Copyright (c) Steve Scherf et al.
# Submitted via: fre:ac v1.0.17
# 
DISCID=b40ed90e
DTITLE=Blues Allstars - The Bluest Blues [CD 1)
DYEAR=1997
DGENRE=Blues
TTITLE0=Black Magic Woman
TTITLE1=Send for me
TTITLE2=Lookin' for Somebody
TTITLE3=Lazy Poker Blues
TTITLE4=Leavin' Town Blues
TTITLE5=Travelling Riverside Blues
TTITLE6=The Supernatural
TTITLE7=A Fool no More
TTITLE8=Crying won't bring you Back
TTITLE9=Racketeer Blues
TTITLE10=Merry go Round
TTITLE11=Moving the Blues
TTITLE12=Blind Man
TTITLE13=Long Grey Mare
EXTD=
EXTT0=
EXTT1=
EXTT2=
EXTT3=
EXTT4=
EXTT5=
EXTT6=
EXTT7=
EXTT8=
EXTT9=
EXTT10=
EXTT11=
EXTT12=
EXTT13=
PLAYORDER=
